<?xml version="1.0" encoding="UTF-8" standalone="no"?><!DOCTYPE svg PUBLIC "-//W3C//DTD SVG 1.1//EN" "http://www.w3.org/Graphics/SVG/1.1/DTD/svg11.dtd"><svg width="100%" height="100%" viewBox="0 0 57 57" version="1.1" xmlns="http://www.w3.org/2000/svg" xmlns:xlink="http://www.w3.org/1999/xlink" xml:space="preserve" xmlns:serif="http://www.serif.com/" style="fill-rule:evenodd;clip-rule:evenodd;stroke-linejoin:round;stroke-miterlimit:2;"><rect id="_2020" serif:id="2020" x="0" y="0" width="56.693" height="56.693" style="fill:none;"/><path d="M41.779,0L37.151,4.733C36.998,4.89 36.954,5.123 37.039,5.324C37.124,5.526 37.321,5.657 37.54,5.657C39.041,5.657 41.449,5.657 42.52,5.657C42.664,5.657 42.802,5.715 42.904,5.817C43.006,5.919 43.064,6.057 43.064,6.201C43.064,7.035 43.064,8.627 43.064,9.519C43.064,9.934 42.898,10.332 42.603,10.624C41.434,11.782 38.343,14.843 36.882,16.291C36.378,16.79 35.697,17.071 34.987,17.071C32.134,17.071 24.559,17.071 21.706,17.071C20.996,17.071 20.315,16.79 19.811,16.291C18.349,14.843 15.259,11.782 14.09,10.624C13.795,10.332 13.629,9.934 13.629,9.519C13.629,8.627 13.629,7.035 13.629,6.201C13.629,6.057 13.687,5.919 13.789,5.817C13.891,5.715 14.029,5.657 14.173,5.657C15.244,5.657 17.651,5.657 19.153,5.657C19.372,5.657 19.569,5.526 19.654,5.324C19.739,5.123 19.695,4.89 19.542,4.733L14.914,0L4.42,0C1.981,0 0,1.981 0,4.42L0,14.914L4.733,19.542C4.89,19.695 5.123,19.739 5.324,19.654C5.526,19.569 5.657,19.372 5.657,19.153C5.657,17.651 5.657,15.244 5.657,14.173C5.657,14.029 5.715,13.891 5.817,13.789C5.919,13.687 6.057,13.629 6.201,13.629C7.035,13.629 8.627,13.629 9.519,13.629C9.934,13.629 10.332,13.795 10.624,14.09C11.782,15.259 14.843,18.349 16.291,19.811C16.79,20.315 17.071,20.996 17.071,21.706C17.071,24.559 17.071,32.134 17.071,34.987C17.071,35.697 16.79,36.378 16.291,36.882C14.843,38.343 11.782,41.434 10.624,42.603C10.332,42.898 9.934,43.064 9.519,43.064C8.627,43.064 7.035,43.064 6.201,43.064C6.057,43.064 5.919,43.006 5.817,42.904C5.715,42.802 5.657,42.664 5.657,42.52C5.657,41.449 5.657,39.041 5.657,37.54C5.657,37.321 5.526,37.124 5.324,37.039C5.123,36.954 4.89,36.998 4.733,37.151L0,41.779L0,52.273C0,54.712 1.981,56.693 4.42,56.693L14.914,56.693L19.542,51.96C19.695,51.803 19.739,51.57 19.654,51.368C19.569,51.167 19.372,51.036 19.153,51.036C17.651,51.036 15.244,51.036 14.173,51.036C14.029,51.036 13.891,50.978 13.789,50.876C13.687,50.774 13.629,50.636 13.629,50.492C13.629,49.658 13.629,48.066 13.629,47.174C13.629,46.759 13.795,46.361 14.09,46.069C15.259,44.911 18.349,41.85 19.811,40.402C20.315,39.903 20.996,39.622 21.706,39.622C24.559,39.622 32.134,39.622 34.987,39.622C35.697,39.622 36.378,39.903 36.882,40.402C38.343,41.85 41.434,44.911 42.603,46.069C42.898,46.361 43.064,46.759 43.064,47.174C43.064,48.066 43.064,49.658 43.064,50.492C43.064,50.636 43.006,50.774 42.904,50.876C42.802,50.978 42.664,51.036 42.52,51.036C41.449,51.036 39.041,51.036 37.54,51.036C37.321,51.036 37.124,51.167 37.039,51.368C36.954,51.57 36.998,51.803 37.151,51.96L41.779,56.693L52.273,56.693C54.712,56.693 56.693,54.712 56.693,52.273L56.693,41.779L51.96,37.151C51.803,36.998 51.57,36.954 51.368,37.039C51.167,37.124 51.036,37.321 51.036,37.54C51.036,39.041 51.036,41.449 51.036,42.52C51.036,42.664 50.978,42.802 50.876,42.904C50.774,43.006 50.636,43.064 50.492,43.064C49.658,43.064 48.066,43.064 47.174,43.064C46.759,43.064 46.361,42.898 46.069,42.603C44.911,41.434 41.85,38.343 40.402,36.882C39.903,36.378 39.622,35.697 39.622,34.987C39.622,32.134 39.622,24.559 39.622,21.706C39.622,20.996 39.903,20.315 40.402,19.811C41.85,18.349 44.911,15.259 46.069,14.09C46.361,13.795 46.759,13.629 47.174,13.629C48.066,13.629 49.658,13.629 50.492,13.629C50.636,13.629 50.774,13.687 50.876,13.789C50.978,13.891 51.036,14.029 51.036,14.173C51.036,15.244 51.036,17.651 51.036,19.153C51.036,19.372 51.167,19.569 51.368,19.654C51.57,19.739 51.803,19.695 51.96,19.542L56.693,14.914L56.693,4.42C56.693,1.981 54.712,0 52.273,0L41.779,0ZM35.497,28.346C35.497,32.293 32.293,35.497 28.346,35.497C24.4,35.497 21.196,32.293 21.196,28.346C21.196,24.4 24.4,21.196 28.346,21.196C32.293,21.196 35.497,24.4 35.497,28.346Z" style="fill:#f00;"/></svg>