<?xml version="1.0" encoding="UTF-8" standalone="no"?><!DOCTYPE svg PUBLIC "-//W3C//DTD SVG 1.1//EN" "http://www.w3.org/Graphics/SVG/1.1/DTD/svg11.dtd"><svg width="100%" height="100%" viewBox="0 0 114 57" version="1.1" xmlns="http://www.w3.org/2000/svg" xmlns:xlink="http://www.w3.org/1999/xlink" xml:space="preserve" xmlns:serif="http://www.serif.com/" style="fill-rule:evenodd;clip-rule:evenodd;stroke-linejoin:round;stroke-miterlimit:2;"><rect id="_2040" serif:id="2040" x="0.201" y="0" width="113.386" height="56.693" style="fill:none;"/><clipPath id="_clip1"><rect x="0.201" y="0" width="113.386" height="56.693"/></clipPath><g clip-path="url(#_clip1)"><path d="M71.808,56.693L41.98,56.693L37.352,51.96C37.199,51.803 37.155,51.57 37.24,51.368C37.325,51.167 37.522,51.036 37.741,51.036C39.243,51.036 41.65,51.036 42.721,51.036C42.865,51.036 43.004,50.978 43.106,50.876C43.208,50.774 43.265,50.636 43.265,50.492C43.265,49.658 43.265,48.066 43.265,47.174C43.265,46.759 43.099,46.361 42.804,46.069C41.635,44.911 38.545,41.85 37.083,40.402C36.579,39.903 35.898,39.622 35.188,39.622C32.335,39.622 24.76,39.622 21.907,39.622C21.197,39.622 20.516,39.903 20.012,40.402C18.551,41.85 15.46,44.911 14.291,46.069C13.996,46.361 13.83,46.759 13.83,47.174C13.83,48.066 13.83,49.658 13.83,50.492C13.83,50.636 13.888,50.774 13.99,50.876C14.092,50.978 14.23,51.036 14.374,51.036C15.445,51.036 17.853,51.036 19.354,51.036C19.573,51.036 19.77,51.167 19.855,51.368C19.94,51.57 19.896,51.803 19.743,51.96L15.115,56.693L4.621,56.693C2.182,56.693 0.201,54.712 0.201,52.273L0.201,41.779L4.934,37.151C5.091,36.998 5.324,36.954 5.526,37.039C5.727,37.124 5.859,37.321 5.859,37.54C5.859,39.041 5.859,41.449 5.859,42.52C5.859,42.664 5.916,42.802 6.018,42.904C6.12,43.006 6.258,43.064 6.403,43.064C7.236,43.064 8.828,43.064 9.721,43.064C10.136,43.064 10.533,42.898 10.825,42.603C11.983,41.434 15.044,38.343 16.492,36.882C16.992,36.378 17.272,35.697 17.272,34.987C17.272,32.134 17.272,24.559 17.272,21.706C17.272,20.996 16.992,20.315 16.492,19.811C15.044,18.349 11.983,15.259 10.825,14.09C10.533,13.795 10.136,13.629 9.721,13.629C8.828,13.629 7.236,13.629 6.403,13.629C6.258,13.629 6.12,13.687 6.018,13.789C5.916,13.891 5.859,14.029 5.859,14.173C5.859,15.244 5.859,17.651 5.859,19.153C5.859,19.372 5.727,19.569 5.526,19.654C5.324,19.739 5.091,19.695 4.934,19.542L0.201,14.914L0.201,4.42C0.201,1.981 2.182,-0 4.621,-0L15.115,-0L19.743,4.733C19.896,4.89 19.94,5.123 19.855,5.324C19.77,5.526 19.573,5.657 19.354,5.657C17.853,5.657 15.445,5.657 14.374,5.657C14.23,5.657 14.092,5.715 13.99,5.817C13.888,5.919 13.83,6.057 13.83,6.201C13.83,7.035 13.83,8.627 13.83,9.519C13.83,9.934 13.996,10.332 14.291,10.624C15.46,11.782 18.551,14.843 20.012,16.291C20.516,16.79 21.197,17.071 21.907,17.071C24.76,17.071 32.335,17.071 35.188,17.071C35.898,17.071 36.579,16.79 37.083,16.291C38.545,14.843 41.635,11.782 42.804,10.624C43.099,10.332 43.265,9.934 43.265,9.519C43.265,8.627 43.265,7.035 43.265,6.201C43.265,6.057 43.208,5.919 43.106,5.817C43.004,5.715 42.865,5.657 42.721,5.657C41.65,5.657 39.243,5.657 37.741,5.657C37.522,5.657 37.325,5.526 37.24,5.324C37.155,5.123 37.199,4.89 37.352,4.733L41.98,-0L71.808,-0L76.436,4.733C76.589,4.89 76.633,5.123 76.548,5.324C76.463,5.526 76.266,5.657 76.047,5.657C74.546,5.657 72.138,5.657 71.067,5.657C70.923,5.657 70.785,5.715 70.683,5.817C70.581,5.919 70.523,6.057 70.523,6.201C70.523,7.035 70.523,8.627 70.523,9.519C70.523,9.934 70.689,10.332 70.984,10.624C72.153,11.782 75.244,14.843 76.705,16.291C77.209,16.79 77.89,17.071 78.6,17.071C81.453,17.071 89.028,17.071 91.881,17.071C92.591,17.071 93.272,16.79 93.776,16.291C95.238,14.843 98.328,11.782 99.497,10.624C99.792,10.332 99.958,9.934 99.958,9.519C99.958,8.627 99.958,7.035 99.958,6.201C99.958,6.057 99.901,5.919 99.799,5.817C99.697,5.715 99.558,5.657 99.414,5.657C98.343,5.657 95.936,5.657 94.434,5.657C94.215,5.657 94.018,5.526 93.933,5.324C93.848,5.123 93.892,4.89 94.045,4.733L98.673,-0L109.167,-0C111.606,-0 113.587,1.981 113.587,4.42L113.587,14.914L108.854,19.542C108.697,19.695 108.464,19.739 108.263,19.654C108.061,19.569 107.93,19.372 107.93,19.153C107.93,17.651 107.93,15.244 107.93,14.173C107.93,14.029 107.872,13.891 107.77,13.789C107.668,13.687 107.53,13.629 107.386,13.629C106.552,13.629 104.96,13.629 104.068,13.629C103.653,13.629 103.255,13.795 102.963,14.09C101.805,15.259 98.744,18.349 97.296,19.811C96.797,20.315 96.516,20.996 96.516,21.706C96.516,24.559 96.516,32.134 96.516,34.987C96.516,35.697 96.797,36.378 97.296,36.882C98.744,38.343 101.805,41.434 102.963,42.603C103.255,42.898 103.653,43.064 104.068,43.064C104.96,43.064 106.552,43.064 107.386,43.064C107.53,43.064 107.668,43.006 107.77,42.904C107.872,42.802 107.93,42.664 107.93,42.52C107.93,41.449 107.93,39.041 107.93,37.54C107.93,37.321 108.061,37.124 108.263,37.039C108.464,36.954 108.697,36.998 108.854,37.151L113.587,41.779L113.587,52.273C113.587,54.712 111.606,56.693 109.167,56.693L98.673,56.693L94.045,51.96C93.892,51.803 93.848,51.57 93.933,51.368C94.018,51.167 94.215,51.036 94.434,51.036C95.936,51.036 98.343,51.036 99.414,51.036C99.558,51.036 99.697,50.978 99.799,50.876C99.901,50.774 99.958,50.636 99.958,50.492C99.958,49.658 99.958,48.066 99.958,47.174C99.958,46.759 99.792,46.361 99.497,46.069C98.328,44.911 95.238,41.85 93.776,40.402C93.272,39.903 92.591,39.622 91.881,39.622C89.028,39.622 81.453,39.622 78.6,39.622C77.89,39.622 77.209,39.903 76.705,40.402C75.244,41.85 72.153,44.911 70.984,46.069C70.689,46.361 70.523,46.759 70.523,47.174C70.523,48.066 70.523,49.658 70.523,50.492C70.523,50.636 70.581,50.774 70.683,50.876C70.785,50.978 70.923,51.036 71.067,51.036C72.138,51.036 74.546,51.036 76.047,51.036C76.266,51.036 76.463,51.167 76.548,51.368C76.633,51.57 76.589,51.803 76.436,51.96L71.808,56.693ZM66.552,13.635C66.916,13.668 67.259,13.828 67.518,14.09C68.676,15.259 71.737,18.349 73.185,19.811C73.685,20.315 73.965,20.996 73.965,21.706C73.965,24.559 73.965,32.134 73.965,34.987C73.965,35.697 73.685,36.378 73.185,36.882C71.737,38.343 68.676,41.434 67.518,42.603C67.259,42.865 66.916,43.025 66.552,43.057L66.552,50.994L47.237,50.994L47.237,43.057C46.872,43.025 46.529,42.865 46.27,42.603C45.112,41.434 42.051,38.343 40.603,36.882C40.104,36.378 39.824,35.697 39.824,34.987C39.824,32.134 39.824,24.559 39.824,21.706C39.824,20.996 40.104,20.315 40.603,19.811C42.051,18.349 45.112,15.259 46.27,14.09C46.529,13.828 46.872,13.668 47.237,13.635L47.237,5.699L66.552,5.699L66.552,13.635ZM35.699,28.346C35.699,24.4 32.494,21.196 28.548,21.196C24.601,21.196 21.397,24.4 21.397,28.346C21.397,32.293 24.601,35.497 28.548,35.497C32.494,35.497 35.699,32.293 35.699,28.346ZM92.391,28.346C92.391,24.4 89.187,21.196 85.241,21.196C81.294,21.196 78.09,24.4 78.09,28.346C78.09,32.293 81.294,35.497 85.241,35.497C89.187,35.497 92.391,32.293 92.391,28.346Z" style="fill:#f00;"/></g></svg>