<?xml version="1.0" encoding="UTF-8" standalone="no"?><!DOCTYPE svg PUBLIC "-//W3C//DTD SVG 1.1//EN" "http://www.w3.org/Graphics/SVG/1.1/DTD/svg11.dtd"><svg width="100%" height="100%" viewBox="0 0 171 57" version="1.1" xmlns="http://www.w3.org/2000/svg" xmlns:xlink="http://www.w3.org/1999/xlink" xml:space="preserve" xmlns:serif="http://www.serif.com/" style="fill-rule:evenodd;clip-rule:evenodd;stroke-linejoin:round;stroke-miterlimit:2;"><rect id="_2060" serif:id="2060" x="0" y="0" width="170.079" height="56.693" style="fill:none;"/><path d="M94.233,5.657L99.213,5.657C99.357,5.657 99.495,5.715 99.597,5.817C99.699,5.919 99.757,6.057 99.757,6.201C99.757,7.035 99.757,8.627 99.757,9.519C99.757,9.934 99.591,10.332 99.296,10.624C98.127,11.782 95.036,14.843 93.575,16.291C93.071,16.79 92.39,17.071 91.68,17.071L78.399,17.071C77.689,17.071 77.008,16.79 76.504,16.291C75.042,14.843 71.952,11.782 70.783,10.624C70.488,10.332 70.322,9.934 70.322,9.519C70.322,8.627 70.322,7.035 70.322,6.201C70.322,6.057 70.379,5.919 70.481,5.817C70.583,5.715 70.722,5.657 70.866,5.657C71.937,5.657 74.344,5.657 75.846,5.657C76.065,5.657 76.262,5.526 76.347,5.324C76.432,5.123 76.388,4.89 76.235,4.733L71.607,0L41.779,0L37.151,4.733C36.998,4.89 36.954,5.123 37.039,5.324C37.124,5.526 37.321,5.657 37.54,5.657C39.041,5.657 41.449,5.657 42.52,5.657C42.664,5.657 42.802,5.715 42.904,5.817C43.006,5.919 43.064,6.057 43.064,6.201C43.064,7.035 43.064,8.627 43.064,9.519C43.064,9.934 42.898,10.332 42.603,10.624C41.434,11.782 38.343,14.843 36.882,16.291C36.378,16.79 35.697,17.071 34.987,17.071C32.134,17.071 24.559,17.071 21.706,17.071C20.996,17.071 20.315,16.79 19.811,16.291C18.349,14.843 15.259,11.782 14.09,10.624C13.795,10.332 13.629,9.934 13.629,9.519C13.629,8.627 13.629,7.035 13.629,6.201C13.629,6.057 13.687,5.919 13.789,5.817C13.891,5.715 14.029,5.657 14.173,5.657C15.244,5.657 17.651,5.657 19.153,5.657C19.372,5.657 19.569,5.526 19.654,5.324C19.739,5.123 19.695,4.89 19.542,4.733L14.914,0L4.42,0C1.981,0 0,1.981 0,4.42L0,14.914L4.733,19.542C4.89,19.695 5.123,19.739 5.324,19.654C5.526,19.569 5.657,19.372 5.657,19.153C5.657,17.651 5.657,15.244 5.657,14.173C5.657,14.029 5.715,13.891 5.817,13.789C5.919,13.687 6.057,13.629 6.201,13.629C7.035,13.629 8.627,13.629 9.519,13.629C9.934,13.629 10.332,13.795 10.624,14.09C11.782,15.259 14.843,18.349 16.291,19.811C16.79,20.315 17.071,20.996 17.071,21.706C17.071,24.559 17.071,32.134 17.071,34.987C17.071,35.697 16.79,36.378 16.291,36.882C14.843,38.343 11.782,41.434 10.624,42.603C10.332,42.898 9.934,43.064 9.519,43.064C8.627,43.064 7.035,43.064 6.201,43.064C6.057,43.064 5.919,43.006 5.817,42.904C5.715,42.802 5.657,42.664 5.657,42.52C5.657,41.449 5.657,39.041 5.657,37.54C5.657,37.321 5.526,37.124 5.324,37.039C5.123,36.954 4.89,36.998 4.733,37.151L0,41.779L0,52.273C0,54.712 1.981,56.693 4.42,56.693L14.914,56.693L19.542,51.96C19.695,51.803 19.739,51.57 19.654,51.368C19.569,51.167 19.372,51.036 19.153,51.036C17.651,51.036 15.244,51.036 14.173,51.036C14.029,51.036 13.891,50.978 13.789,50.876C13.687,50.774 13.629,50.636 13.629,50.492C13.629,49.658 13.629,48.066 13.629,47.174C13.629,46.759 13.795,46.361 14.09,46.069C15.259,44.911 18.349,41.85 19.811,40.402C20.315,39.903 20.996,39.622 21.706,39.622C24.559,39.622 32.134,39.622 34.987,39.622C35.697,39.622 36.378,39.903 36.882,40.402C38.343,41.85 41.434,44.911 42.603,46.069C42.898,46.361 43.064,46.759 43.064,47.174C43.064,48.066 43.064,49.658 43.064,50.492C43.064,50.636 43.006,50.774 42.904,50.876C42.802,50.978 42.664,51.036 42.52,51.036C41.449,51.036 39.041,51.036 37.54,51.036C37.321,51.036 37.124,51.167 37.039,51.368C36.954,51.57 36.998,51.803 37.151,51.96L41.779,56.693L71.607,56.693L76.235,51.96C76.388,51.803 76.432,51.57 76.347,51.368C76.262,51.167 76.065,51.036 75.846,51.036L70.866,51.036C70.722,51.036 70.583,50.978 70.481,50.876C70.379,50.774 70.322,50.636 70.322,50.492C70.322,49.658 70.322,48.066 70.322,47.174C70.322,46.759 70.488,46.361 70.783,46.069C71.952,44.911 75.042,41.85 76.504,40.402C77.008,39.903 77.689,39.622 78.399,39.622L91.68,39.622C92.39,39.622 93.071,39.903 93.575,40.402C95.036,41.85 98.127,44.911 99.296,46.069C99.591,46.361 99.757,46.759 99.757,47.174C99.757,48.066 99.757,49.658 99.757,50.492C99.757,50.636 99.699,50.774 99.597,50.876C99.495,50.978 99.357,51.036 99.213,51.036C98.142,51.036 95.734,51.036 94.233,51.036C94.014,51.036 93.817,51.167 93.732,51.368C93.647,51.57 93.691,51.803 93.844,51.96L98.472,56.693L128.3,56.693L132.928,51.96C133.081,51.803 133.125,51.57 133.04,51.368C132.955,51.167 132.758,51.036 132.539,51.036C131.037,51.036 128.63,51.036 127.559,51.036C127.415,51.036 127.276,50.978 127.174,50.876C127.072,50.774 127.015,50.636 127.015,50.492C127.015,49.658 127.015,48.066 127.015,47.174C127.015,46.759 127.181,46.361 127.476,46.069C128.644,44.911 131.735,41.85 133.197,40.402C133.701,39.903 134.382,39.622 135.092,39.622C137.945,39.622 145.52,39.622 148.373,39.622C149.082,39.622 149.763,39.903 150.268,40.402C151.729,41.85 154.82,44.911 155.989,46.069C156.284,46.361 156.45,46.759 156.45,47.174C156.45,48.066 156.45,49.658 156.45,50.492C156.45,50.636 156.392,50.774 156.29,50.876C156.188,50.978 156.05,51.036 155.906,51.036C154.835,51.036 152.427,51.036 150.926,51.036C150.707,51.036 150.509,51.167 150.425,51.368C150.34,51.57 150.384,51.803 150.537,51.96L155.165,56.693L165.659,56.693C168.098,56.693 170.079,54.712 170.079,52.273L170.079,41.779L165.346,37.151C165.189,36.998 164.956,36.954 164.754,37.039C164.553,37.124 164.421,37.321 164.421,37.54C164.421,39.041 164.421,41.449 164.421,42.52C164.421,42.664 164.364,42.802 164.262,42.904C164.16,43.006 164.022,43.064 163.877,43.064C163.044,43.064 161.452,43.064 160.559,43.064C160.144,43.064 159.747,42.898 159.455,42.603C158.297,41.434 155.235,38.343 153.788,36.882C153.288,36.378 153.008,35.697 153.008,34.987C153.008,32.134 153.008,24.559 153.008,21.706C153.008,20.996 153.288,20.315 153.788,19.811C155.235,18.349 158.297,15.259 159.455,14.09C159.747,13.795 160.144,13.629 160.559,13.629C161.452,13.629 163.044,13.629 163.877,13.629C164.022,13.629 164.16,13.687 164.262,13.789C164.364,13.891 164.421,14.029 164.421,14.173C164.421,15.244 164.421,17.651 164.421,19.153C164.421,19.372 164.553,19.569 164.754,19.654C164.956,19.739 165.189,19.695 165.346,19.542L170.079,14.914L170.079,4.42C170.079,1.981 168.098,0 165.659,0L155.165,0L150.537,4.733C150.384,4.89 150.34,5.123 150.425,5.324C150.509,5.526 150.707,5.657 150.926,5.657C152.427,5.657 154.835,5.657 155.906,5.657C156.05,5.657 156.188,5.715 156.29,5.817C156.392,5.919 156.45,6.057 156.45,6.201C156.45,7.035 156.45,8.627 156.45,9.519C156.45,9.934 156.284,10.332 155.989,10.624C154.82,11.782 151.729,14.843 150.268,16.291C149.763,16.79 149.082,17.071 148.373,17.071C145.52,17.071 137.945,17.071 135.092,17.071C134.382,17.071 133.701,16.79 133.197,16.291C131.735,14.843 128.644,11.782 127.476,10.624C127.181,10.332 127.015,9.934 127.015,9.519C127.015,8.627 127.015,7.035 127.015,6.201C127.015,6.057 127.072,5.919 127.174,5.817C127.276,5.715 127.415,5.657 127.559,5.657C128.63,5.657 131.037,5.657 132.539,5.657C132.758,5.657 132.955,5.526 133.04,5.324C133.125,5.123 133.081,4.89 132.928,4.733L128.3,0L98.472,0L93.844,4.733C93.691,4.89 93.647,5.123 93.732,5.324C93.817,5.526 94.014,5.657 94.233,5.657ZM66.35,13.635L66.35,5.699L47.035,5.699L47.035,13.635C46.671,13.668 46.328,13.828 46.069,14.09C44.911,15.259 41.85,18.349 40.402,19.811C39.903,20.315 39.622,20.996 39.622,21.706C39.622,24.559 39.622,32.134 39.622,34.987C39.622,35.697 39.903,36.378 40.402,36.882C41.85,38.343 44.911,41.434 46.069,42.603C46.328,42.865 46.671,43.025 47.035,43.057L47.035,50.994L66.35,50.994L66.35,43.054L66.437,43.047C66.477,43.041 66.517,43.034 66.556,43.025C66.843,42.96 67.107,42.815 67.317,42.603C68.475,41.434 71.536,38.343 72.984,36.882C73.439,36.423 73.712,35.816 73.757,35.176L73.763,34.987C73.763,32.134 73.763,24.559 73.763,21.706C73.763,20.996 73.483,20.315 72.984,19.811C71.536,18.349 68.475,15.259 67.317,14.09C67.058,13.828 66.715,13.668 66.35,13.635ZM123.043,13.635L123.043,5.699L103.728,5.699L103.728,13.635C103.364,13.668 103.021,13.828 102.762,14.09C101.604,15.259 98.543,18.349 97.095,19.811C96.595,20.315 96.315,20.996 96.315,21.706C96.315,24.559 96.315,32.134 96.315,34.987C96.315,35.697 96.595,36.378 97.095,36.882C98.543,38.343 101.604,41.434 102.762,42.603C103.017,42.861 103.354,43.02 103.712,43.056L103.728,43.057L103.728,50.994L123.043,50.994L123.043,43.057C123.408,43.025 123.751,42.865 124.01,42.603C125.168,41.434 128.229,38.343 129.677,36.882C130.176,36.378 130.456,35.697 130.456,34.987C130.456,32.134 130.456,24.559 130.456,21.706C130.456,20.996 130.176,20.315 129.677,19.811C128.229,18.349 125.168,15.259 124.01,14.09C123.751,13.828 123.408,13.668 123.043,13.635ZM148.883,28.346C148.883,32.293 145.679,35.497 141.732,35.497C137.786,35.497 134.581,32.293 134.581,28.346C134.581,24.4 137.786,21.196 141.732,21.196C145.679,21.196 148.883,24.4 148.883,28.346ZM35.497,28.346C35.497,32.293 32.293,35.497 28.346,35.497C24.4,35.497 21.196,32.293 21.196,28.346C21.196,24.4 24.4,21.196 28.346,21.196C32.293,21.196 35.497,24.4 35.497,28.346ZM85.039,21.196C88.986,21.196 92.19,24.4 92.19,28.346C92.19,32.293 88.986,35.497 85.039,35.497C81.093,35.497 77.889,32.293 77.889,28.346C77.889,24.4 81.093,21.196 85.039,21.196Z" style="fill:#f00;"/></svg>